<mxfile host="app.diagrams.net" modified="2022-04-10T14:47:05.174Z" agent="5.0 (Macintosh; Intel Mac OS X 10_15_7) AppleWebKit/537.36 (KHTML, like Gecko) Chrome/100.0.4896.75 Safari/537.36" etag="qJmKiwqC12rsGO_0vsOw" version="17.4.0" type="github">
  <diagram id="3228e29e-7158-1315-38df-8450db1d8a1d" name="Page-1">
    <mxGraphModel dx="1056" dy="126" grid="0" gridSize="10" guides="1" tooltips="1" connect="1" arrows="1" fold="1" page="1" pageScale="1" pageWidth="530" pageHeight="700" background="#EFF1F3" math="0" shadow="0">
      <root>
        <mxCell id="0" />
        <mxCell id="1" parent="0" />
        <mxCell id="OGBjxk_xHfaE1EplLFuK-23" value="begin;" style="rounded=0;whiteSpace=wrap;html=1;fillColor=#CCCCCC;gradientColor=none;fontSize=24;" parent="1" vertex="1">
          <mxGeometry x="151" y="808" width="380" height="60" as="geometry" />
        </mxCell>
        <mxCell id="OGBjxk_xHfaE1EplLFuK-29" value="&lt;font color=&quot;#ffffff&quot; style=&quot;font-size: 24px;&quot;&gt;线程1&lt;/font&gt;" style="rounded=0;whiteSpace=wrap;html=1;fillColor=#535E80;gradientColor=none;fontSize=24;" parent="1" vertex="1">
          <mxGeometry x="151" y="748" width="380" height="60" as="geometry" />
        </mxCell>
        <mxCell id="E5Fr-yn8FIVRKY9gDkfl-8" value="&lt;font color=&quot;#ffffff&quot; style=&quot;font-size: 24px;&quot;&gt;线程2&lt;/font&gt;" style="rounded=0;whiteSpace=wrap;html=1;fillColor=#535E80;gradientColor=none;fontSize=24;" parent="1" vertex="1">
          <mxGeometry x="531" y="748" width="380" height="60" as="geometry" />
        </mxCell>
        <mxCell id="E5Fr-yn8FIVRKY9gDkfl-9" value="begin;" style="rounded=0;whiteSpace=wrap;html=1;fillColor=#CCCCCC;gradientColor=none;fontSize=24;" parent="1" vertex="1">
          <mxGeometry x="531" y="808" width="380" height="60" as="geometry" />
        </mxCell>
        <mxCell id="E5Fr-yn8FIVRKY9gDkfl-10" value="&lt;font style=&quot;font-size: 20px&quot;&gt;select user where phone_no=2 for update; // 不存在，在phone_no (1,3) 加间隙锁&lt;/font&gt;" style="rounded=0;whiteSpace=wrap;html=1;fillColor=#F8F8F8;gradientColor=none;fontSize=24;" parent="1" vertex="1">
          <mxGeometry x="151" y="868" width="380" height="60" as="geometry" />
        </mxCell>
        <mxCell id="E5Fr-yn8FIVRKY9gDkfl-11" value="" style="rounded=0;whiteSpace=wrap;html=1;fillColor=#F8F8F8;gradientColor=none;fontSize=24;" parent="1" vertex="1">
          <mxGeometry x="531" y="868" width="380" height="60" as="geometry" />
        </mxCell>
        <mxCell id="E5Fr-yn8FIVRKY9gDkfl-12" value="" style="rounded=0;whiteSpace=wrap;html=1;fillColor=#CCCCCC;gradientColor=none;fontSize=24;" parent="1" vertex="1">
          <mxGeometry x="151" y="928" width="380" height="60" as="geometry" />
        </mxCell>
        <mxCell id="E5Fr-yn8FIVRKY9gDkfl-13" value="&lt;font style=&quot;font-size: 20px&quot;&gt;select user where phone_no=2 for update; //阻塞等待&lt;/font&gt;" style="rounded=0;whiteSpace=wrap;html=1;fillColor=#CCCCCC;gradientColor=none;fontSize=24;" parent="1" vertex="1">
          <mxGeometry x="531" y="928" width="380" height="60" as="geometry" />
        </mxCell>
        <mxCell id="E5Fr-yn8FIVRKY9gDkfl-14" value="insert user(phone_no=2);" style="rounded=0;whiteSpace=wrap;html=1;fillColor=#F8F8F8;gradientColor=none;fontSize=24;" parent="1" vertex="1">
          <mxGeometry x="151" y="988" width="380" height="60" as="geometry" />
        </mxCell>
        <mxCell id="E5Fr-yn8FIVRKY9gDkfl-15" value="" style="rounded=0;whiteSpace=wrap;html=1;fillColor=#F8F8F8;gradientColor=none;fontSize=24;" parent="1" vertex="1">
          <mxGeometry x="531" y="988" width="380" height="60" as="geometry" />
        </mxCell>
        <mxCell id="E5Fr-yn8FIVRKY9gDkfl-16" value="commit;" style="rounded=0;whiteSpace=wrap;html=1;fillColor=#CCCCCC;gradientColor=none;fontSize=24;" parent="1" vertex="1">
          <mxGeometry x="151" y="1048" width="380" height="60" as="geometry" />
        </mxCell>
        <mxCell id="E5Fr-yn8FIVRKY9gDkfl-17" value="" style="rounded=0;whiteSpace=wrap;html=1;fillColor=#CCCCCC;gradientColor=none;fontSize=24;" parent="1" vertex="1">
          <mxGeometry x="531" y="1048" width="380" height="60" as="geometry" />
        </mxCell>
        <mxCell id="E5Fr-yn8FIVRKY9gDkfl-18" value="" style="rounded=0;whiteSpace=wrap;html=1;fillColor=#F8F8F8;gradientColor=none;fontSize=24;" parent="1" vertex="1">
          <mxGeometry x="151" y="1108" width="380" height="60" as="geometry" />
        </mxCell>
        <mxCell id="E5Fr-yn8FIVRKY9gDkfl-19" value="&lt;span style=&quot;font-size: 20px&quot;&gt;select user where phone_no=2 for update; //阻塞等待结束，返回有数据&lt;/span&gt;" style="rounded=0;whiteSpace=wrap;html=1;fillColor=#F8F8F8;gradientColor=none;fontSize=24;" parent="1" vertex="1">
          <mxGeometry x="531" y="1108" width="380" height="60" as="geometry" />
        </mxCell>
        <mxCell id="E5Fr-yn8FIVRKY9gDkfl-20" value="" style="rounded=0;whiteSpace=wrap;html=1;fillColor=#CCCCCC;gradientColor=none;fontSize=24;" parent="1" vertex="1">
          <mxGeometry x="151" y="1168" width="380" height="60" as="geometry" />
        </mxCell>
        <mxCell id="E5Fr-yn8FIVRKY9gDkfl-21" value="&lt;font style=&quot;font-size: 19px&quot;&gt;判断有phone_no=2的数据就不执行insert了&lt;/font&gt;" style="rounded=0;whiteSpace=wrap;html=1;fillColor=#CCCCCC;gradientColor=none;fontSize=24;" parent="1" vertex="1">
          <mxGeometry x="531" y="1168" width="380" height="60" as="geometry" />
        </mxCell>
        <mxCell id="E5Fr-yn8FIVRKY9gDkfl-22" value="" style="rounded=0;whiteSpace=wrap;html=1;fillColor=#F8F8F8;gradientColor=none;fontSize=24;" parent="1" vertex="1">
          <mxGeometry x="151" y="1228" width="380" height="60" as="geometry" />
        </mxCell>
        <mxCell id="E5Fr-yn8FIVRKY9gDkfl-23" value="commit;" style="rounded=0;whiteSpace=wrap;html=1;fillColor=#F8F8F8;gradientColor=none;fontSize=24;" parent="1" vertex="1">
          <mxGeometry x="531" y="1228" width="380" height="60" as="geometry" />
        </mxCell>
        <mxCell id="o99k7smHVPs2LoiXMWNT-1" value="&lt;font style=&quot;font-size: 20px&quot;&gt;此时user表里只有一条phone_no=2的数据&lt;/font&gt;" style="rounded=0;whiteSpace=wrap;html=1;fillColor=#CCCCCC;gradientColor=none;fontSize=24;" parent="1" vertex="1">
          <mxGeometry x="151" y="1288" width="380" height="60" as="geometry" />
        </mxCell>
        <mxCell id="o99k7smHVPs2LoiXMWNT-2" value="" style="rounded=0;whiteSpace=wrap;html=1;fillColor=#CCCCCC;gradientColor=none;fontSize=24;" parent="1" vertex="1">
          <mxGeometry x="531" y="1288" width="380" height="60" as="geometry" />
        </mxCell>
        <mxCell id="o99k7smHVPs2LoiXMWNT-3" value="&lt;font color=&quot;#ea6b66&quot; style=&quot;font-size: 16px&quot;&gt;ps: 以上sql都是伪代码&lt;/font&gt;" style="text;html=1;strokeColor=none;fillColor=none;align=left;verticalAlign=middle;whiteSpace=wrap;rounded=0;fontSize=20;" parent="1" vertex="1">
          <mxGeometry x="151" y="1353" width="211" height="21" as="geometry" />
        </mxCell>
      </root>
    </mxGraphModel>
  </diagram>
</mxfile>
